<svg xmlns="http://www.w3.org/2000/svg" viewBox="0 0 128 128">
    <path fill="#00599C" d="M117.5 33.5l-6.6-3.8c-1.3-.8-2.9-.8-4.2 0l-6.6 3.8c-1.3.8-2.1 2.2-2.1 3.8v7.6c0 1.5.8 2.9 2.1 3.8l6.6 3.8c1.3.8 2.9.8 4.2 0l6.6-3.8c1.3-.8 2.1-2.2 2.1-3.8v-7.6c0-1.6-.8-3-2.1-3.8z"/>
    <path fill="#00599C" d="M117.5 66.5l-6.6-3.8c-1.3-.8-2.9-.8-4.2 0l-6.6 3.8c-1.3.8-2.1 2.2-2.1 3.8v7.6c0 1.5.8 2.9 2.1 3.8l6.6 3.8c1.3.8 2.9.8 4.2 0l6.6-3.8c1.3-.8 2.1-2.2 2.1-3.8v-7.6c0-1.6-.8-3-2.1-3.8z"/>
    <path fill="#004482" d="M47.3 103.5l14.8-8.5-12.8-7.4-14.8 8.5c-5.1 2.9-10.9 4.3-16.6 4.3-10.7 0-20.9-4.8-27.1-13.6-1.5-2.1-3.8-3.4-6.4-3.4-2.8 0-5.3 1.5-6.6 4l-1.9 3.5c-3.1 5.9.9 12.8 7.3 13.9 8.2 1.4 16.7 1.1 24.8-1.1 5.4-1.5 10.4-3.8 14.8-6.9l4.5 2.7z"/>
    <path fill="#659AD2" d="M49.3 64l12.8 7.4-14.8 8.5c-4.3 2.5-9.2 4.1-14.2 4.9L28.6 74c5-1.9 9.6-4.9 13.2-8.7 1.3-1.4 3-2.2 4.9-2.2h2.6z"/>
    <path fill="#00599C" d="M84.7 42.1l-14.8 8.5 12.8 7.4 14.8-8.5c5.3-3.1 8.7-8.6 8.7-14.7 0-6.1-3.3-11.7-8.7-14.8L64.4 2.1C55.7-2.9 44.9-2.9 36.3 2.1l-22.1 12.8c-2.4 1.4-3.2 4.4-1.8 6.8l1.9 3.3c1.3 2.3 4 3.4 6.5 2.8 2-.5 4.1-.7 6.1-.7 5.8 0 11.6 1.5 16.7 4.5l14.8-8.5-12.8-7.4 14.8-8.5c2.6-1.5 5.8-1.5 8.5 0l22.1 12.7c2.6 1.5 4.2 4.3 4.2 7.3 0 3-1.6 5.8-4.2 7.3l-5.7 3.3z"/>
    <text x="104" y="46" fill="white" font-family="Arial" font-weight="bold" font-size="14" text-anchor="middle">+</text>
    <text x="104" y="79" fill="white" font-family="Arial" font-weight="bold" font-size="14" text-anchor="middle">+</text>
</svg>
