<svg xmlns="http://www.w3.org/2000/svg" viewBox="0 0 256 256">
  <defs>
    <linearGradient id="a" x1="15.8%" x2="79%" y1="12.2%" y2="81.2%">
      <stop offset="0%" stop-color="#387EB8"/>
      <stop offset="100%" stop-color="#366994"/>
    </linearGradient>
    <linearGradient id="b" x1="17.5%" x2="86.9%" y1="21.1%" y2="88.7%">
      <stop offset="0%" stop-color="#FFE052"/>
      <stop offset="100%" stop-color="#FFC331"/>
    </linearGradient>
  </defs>
  <path fill="url(#a)" d="M126.9 25.1c25.4 0 49.6.9 59.1 5.9 14.8 6.5 14.8 28.7 14.8 38.6h-59.9c-8 0-21.2.9-21.2 16.5v22.4h55.3v17.4H87.3c-28.7 0-41.5-20.1-41.5-47.5 0-23.7 9.8-39.2 38.6-47.5 12.2-2.9 25.3-5.8 42.5-5.8zM98.8 38.6c-4.5 0-7.7 3.6-7.7 8s3.3 8 7.7 8c4.8 0 8-3.6 8-8s-3.2-8-8-8z"/>
  <path fill="url(#b)" d="M130.4 231.8c-25.7 0-48.4-1.2-57.9-6.2-14.8-6.2-14.8-28.4-14.8-38.3h58.5c8.6 0 21.2-1.8 21.2-17.7v-22.1H81.9v-17.4h89.8c29 0 41.5 20.4 41.5 47.8 0 23.4-10.4 39.2-39.2 47.5-12.7 3.3-25.7 6.4-43.6 6.4zm28.7-13.6c4.5 0 8-3.6 8-8s-3.6-8-8-8-8 3.6-8 8 3.6 8 8 8z"/>
</svg>
